<?xml version="1.0" encoding="utf-8"?>
<!-- Generator: Adobe Illustrator 19.0.0, SVG Export Plug-In . SVG Version: 6.00 Build 0)  -->
<svg version="1.1"
	 id="Layer_1" inkscape:version="0.91 r13725" sodipodi:docname="header.__content__editorialTelevisa__mexico__cosmo__mx__header.svg" xmlns:dc="http://purl.org/dc/elements/1.1/" xmlns:rdf="http://www.w3.org/1999/02/22-rdf-syntax-ns#" xmlns:sodipodi="http://sodipodi.sourceforge.net/DTD/sodipodi-0.dtd" xmlns:inkscape="http://www.inkscape.org/namespaces/inkscape" xmlns:cc="http://creativecommons.org/ns#" xmlns:svg="http://www.w3.org/2000/svg"
	 xmlns="http://www.w3.org/2000/svg" xmlns:xlink="http://www.w3.org/1999/xlink" x="0px" y="0px" viewBox="1079 10.3 3000 576"
	 style="enable-background:new 1079 10.3 3000 576;" xml:space="preserve">
<style type="text/css">
	.st0{fill:#FFFFFF;}
</style>
<title  id="title4177">Cosmopolitan Logo</title>
<sodipodi:namedview  guidetolerance="10" objecttolerance="10" gridtolerance="10" inkscape:window-maximized="1" inkscape:window-x="-8" inkscape:window-height="715" fit-margin-bottom="20" inkscape:pageshadow="2" fit-margin-right="20" inkscape:pageopacity="0" inkscape:window-y="-8" inkscape:window-width="1366" inkscape:current-layer="Layer_1" bordercolor="#666666" inkscape:zoom="0.27297297" borderopacity="1" id="namedview29" pagecolor="#ffffff" inkscape:cx="1500" fit-margin-left="20" fit-margin-top="20" showgrid="false" inkscape:cy="288.01436" inkscape:showpageshadow="false">
	</sodipodi:namedview>
<g id="g4174" transform="matrix(4.707812,0,0,4.707812,17.195542,-201.13843)">
	<path id="polygon5" inkscape:connector-curvature="0" class="st0" d="M258.3,49.2c-15.8,0-28.5,15.1-28.5,56.9
		c0,36,7.1,56.9,28.5,56.9c23.4,0,26.2-23.1,26.2-42.2l-16.9-0.8c-0.3,15.8-1.8,26-8.5,26c-6.2,0-8.3-4-8.3-40c0-37.2,4.1-40,8.3-40
		c4.9,0,7.2,6.8,7.2,24.9l17.8-0.6C284.1,70.4,281.3,49.2,258.3,49.2z M315.1,49.2c-17.7,0-29.2,13.7-29.2,56.9
		c0,43.2,11.5,56.9,29.2,56.9c17.7,0,29.2-13.7,29.2-56.9c0-6-0.2-11.4-0.7-16.3c6.9,23,34.8,28.5,34.8,45.7
		c0,4.5-2.3,10.6-8.9,10.6c-8.6,0-8.6-10.8-8.6-16.9v0h-17.8c0,15.1,4.3,33.9,25.7,33.9c11.8,0,19.9-5.7,24.1-14.4v12.2h14.8V80.5
		h0.3l13.4,80.3h11.1L446,80.5h0.3v80.3h17.8v-52.7c0.4,41.6,11.8,54.8,29.2,54.8c15.9,0,26.9-11.1,28.9-44.9v42.8h20V117h8
		c14.6,0,22.5-8,25.3-20.9c-0.2,3.1-0.2,6.5-0.2,10c0,43.2,11.5,56.9,29.2,56.9c17.7,0,29.2-13.7,29.2-56.9
		c0-43.2-11.5-56.9-29.2-56.9c-14.1,0-24.3,8.7-27.8,34.2c-0.3-23.1-12.1-32-34.5-32h-20v42.8c-2-33.8-13-44.9-28.9-44.9
		c-17.4,0-28.8,13.3-29.2,54.8V51.3h-26l-9.4,56.2h-0.3l-8.9-56.2h-26.6v24.2c-1.9-15.9-9.1-26.4-24.9-26.4
		c-16.7,0-25.7,13.1-25.8,29.3C338.1,56.8,328.3,49.2,315.1,49.2L315.1,49.2z M634.3,51.3v109.5h45.5v-16.9h-25.5V51.3H634.3z
		 M683,51.3v109.5h20V51.3H683z M706.4,51.3v16.9h17.2v92.6h20V68.2h17l-13,92.6h16.8l2.8-24.3h16.2l2.9,24.3h18.1h1.1h15.8V94.5
		h0.3l21.4,66.3h15.5V51.3h-16v57.8h-0.3l-18.3-57.8h-19.5v100.7L791.9,51.3H763l-2.2,15.4V51.3L706.4,51.3L706.4,51.3z M315.1,66.1
		c4.6,0,7.4,4.8,7.4,28.5v23.1c0,23.7-2.8,28.5-7.4,28.5c-4.6,0-7.4-4.8-7.4-28.5V94.5C307.8,70.8,310.5,66.1,315.1,66.1z
		 M367.6,66.1c8,0,8,10.3,8,16.5h17.4v34.8c-9-19.1-32.9-26.1-32.9-41.2C360,70.1,362.8,66.1,367.6,66.1z M493.4,66.1
		c4.6,0,7.4,4.8,7.4,28.5v23.1c0,23.7-2.8,28.5-7.4,28.5c-4.6,0-7.4-4.8-7.4-28.5V94.5C486,70.8,488.8,66.1,493.4,66.1z M604.6,66.1
		c4.6,0,7.4,4.8,7.4,28.5v23.1c0,23.7-2.8,28.5-7.4,28.5c-4.6,0-7.4-4.8-7.4-28.5V94.5C597.2,70.8,600,66.1,604.6,66.1z M542.5,68.2
		h1.5c6.6,0,12.8,0.5,12.8,16.3c0,13.2-4.5,16.5-12.6,16.5h-1.7V68.2z M775.5,68.2h0.3l5.8,52.3h-12.5L775.5,68.2z"/>
</g>
</svg>
