<?xml version="1.0" encoding="utf-8"?>
<!-- Generator: Adobe Illustrator 19.0.0, SVG Export Plug-In . SVG Version: 6.00 Build 0)  -->
<svg version="1.1"
	 id="svg2" xmlns:sketch="http://www.bohemiancoding.com/sketch/ns" inkscape:version="0.91 r13725" sodipodi:docname="play.svg" xmlns:dc="http://purl.org/dc/elements/1.1/" xmlns:rdf="http://www.w3.org/1999/02/22-rdf-syntax-ns#" xmlns:sodipodi="http://sodipodi.sourceforge.net/DTD/sodipodi-0.dtd" xmlns:inkscape="http://www.inkscape.org/namespaces/inkscape" xmlns:cc="http://creativecommons.org/ns#" xmlns:svg="http://www.w3.org/2000/svg"
	 xmlns="http://www.w3.org/2000/svg" xmlns:xlink="http://www.w3.org/1999/xlink" x="0px" y="0px"
	 viewBox="1079 -316.5 3000 1227.8" style="enable-background:new 1079 -316.5 3000 1227.8;" xml:space="preserve">
<style type="text/css">
	.st0{fill:#FFFFFF;}
</style>
<title  id="title4150">ELLE Magazine Logo</title>
<sodipodi:namedview  guidetolerance="10" objecttolerance="10" gridtolerance="10" inkscape:window-maximized="1" inkscape:window-x="-8" inkscape:window-height="715" fit-margin-bottom="20" inkscape:pageshadow="2" fit-margin-right="20" inkscape:pageopacity="0" inkscape:window-y="-8" inkscape:window-width="1366" inkscape:current-layer="svg2" bordercolor="#666666" inkscape:zoom="0.27297297" borderopacity="1" id="namedview20" pagecolor="#ffffff" inkscape:cx="1500" fit-margin-left="20" fit-margin-top="20" showgrid="false" inkscape:cy="613.8854" inkscape:showpageshadow="false">
	</sodipodi:namedview>
<desc  id="desc6">Created with Sketch.</desc>
<g id="Page-1" transform="matrix(13.466788,0,0,13.466788,20,20)" sketch:type="MSPage">
	<g id="logo" sketch:type="MSLayerGroup">
		<g id="Group" sketch:type="MSShapeGroup">
			<path id="Shape" inkscape:connector-curvature="0" class="st0" d="M86.8,63.3h-6.7v1.3h37.1V41.2h-1.1c0,0,0,13.5-4.5,17.9
				c-3.8,3.8-7.8,4.1-14.3,4.1V20.1c0,0,4.5-0.3,6.7,1.9c3.4,3.4,3.8,7.8,3.8,13.9h1.2v-33h-1.2c0,6.1-0.3,10.5-3.8,13.9
				c-2.2,2.2-6.7,1.9-6.7,1.9v-40.9c6.5,0,9.6,0.4,13.4,4.1c4.4,4.4,4.5,17.9,4.5,17.9h1.1l0-23.3H80.1v1.3h6.7V63.3L86.8,63.3z"/>
			<path id="path14" inkscape:connector-curvature="0" class="st0" d="M159.3-22.2v85.5c6.5,0,10.5-0.4,14.3-4.1
				c4.4-4.4,4.5-17.9,4.5-17.9h1.1v23.4h-37.1v-1.3h6.7v-85.7h-6.7v-1.2h23.3v1.3L159.3-22.2L159.3-22.2L159.3-22.2z"/>
			<path id="path16" inkscape:connector-curvature="0" class="st0" d="M218.9-22.2v85.5c6.5,0,10.5-0.4,14.3-4.1
				c4.4-4.4,4.5-17.9,4.5-17.9h1.1v23.4h-37.1v-1.3h6.7v-85.7h-6.7v-1.2H225v1.3L218.9-22.2L218.9-22.2L218.9-22.2z"/>
			<path id="path18" inkscape:connector-curvature="0" class="st0" d="M269.5,63.3h-6.7v1.3h37.1V41.2h-1.1c0,0,0,13.5-4.5,17.9
				c-3.8,3.8-7.8,4.1-14.3,4.1V20.1c0,0,4.5-0.3,6.7,1.9c3.4,3.4,3.8,7.8,3.8,13.9h1.2v-33h-1.2c0,6.1-0.3,10.5-3.8,13.9
				c-2.2,2.2-6.7,1.9-6.7,1.9v-40.9c6.5,0,9.6,0.4,13.4,4.1c4.4,4.4,4.5,17.9,4.5,17.9h1.1v-23.3h-36.2v1.3h6.7L269.5,63.3
				L269.5,63.3L269.5,63.3L269.5,63.3z"/>
		</g>
	</g>
</g>
</svg>
