<?xml version="1.0" encoding="iso-8859-1"?>
<!-- Generator: Adobe Illustrator 19.0.0, SVG Export Plug-In . SVG Version: 6.00 Build 0)  -->
<svg version="1.1" id="Capa_1" xmlns="http://www.w3.org/2000/svg" xmlns:xlink="http://www.w3.org/1999/xlink" x="0px" y="0px"
	 viewBox="0 0 512.001 512.001" style="enable-background:new 0 0 512.001 512.001;" xml:space="preserve">
<path style="fill:#FF3980;" d="M512,253.9l-29.412-18.307c-46.518-30.613-75.83-59.725-95.337-83.434
	c-21.307-25.809-38.114-46.217-70.528-46.217c-20.107,0-39.015,7.803-53.422,22.209c-3.601,3.601-9.602,3.601-13.203,0
	c-14.407-14.405-33.314-22.209-53.422-22.209c-32.414,0-49.219,20.408-70.527,46.217c-19.509,23.709-46.818,52.822-93.336,83.434
	L0,255.7l180.733,66.889l149.12,4.69L512,253.9z"/>
<path style="fill:#CE0963;" d="M329.853,327.278L512,253.9l-29.412-18.307c-46.518-30.613-75.83-59.725-95.337-83.434
	c-21.307-25.809-38.114-46.217-70.528-46.217c-20.107,0-39.015,7.803-53.422,22.209c-1.801,1.801-4.202,2.7-6.602,2.7v194.127
	L329.853,327.278z"/>
<path style="fill:#FF5E95;" d="M512,253.9l-5.404,4.801c0,0-61.124,43.818-81.832,62.124
	c-48.018,42.017-97.836,85.234-168.065,85.234s-120.047-43.217-168.065-85.234c-20.708-18.307-46.319-36.913-69.429-52.22
	l-14.105-9.604L0,255.7c156.66-20.408,189.474-36.615,221.587-4.803c0,0.901,14.405,14.708,35.113,14.708
	c19.807,0,33.913-12.606,34.813-14.407C323.625,219.085,357.44,233.492,512,253.9z"/>
<path style="fill:#FF3980;" d="M424.765,320.825c20.708-18.307,81.832-62.124,81.832-62.124l5.404-4.801
	c-154.561-20.408-188.375-34.815-220.488-2.702c-0.899,1.801-15.006,14.407-34.813,14.407v140.455
	C326.928,406.059,376.746,362.842,424.765,320.825z"/>
<g>
</g>
<g>
</g>
<g>
</g>
<g>
</g>
<g>
</g>
<g>
</g>
<g>
</g>
<g>
</g>
<g>
</g>
<g>
</g>
<g>
</g>
<g>
</g>
<g>
</g>
<g>
</g>
<g>
</g>
</svg>
