<?xml version="1.0" encoding="utf-8"?>
<!-- Generator: Adobe Illustrator 19.0.0, SVG Export Plug-In . SVG Version: 6.00 Build 0)  -->
<svg version="1.1"
	 id="svg2" inkscape:version="0.48.4 r9939" sodipodi:docname="VOGUE LOGO.svg" xmlns:dc="http://purl.org/dc/elements/1.1/" xmlns:rdf="http://www.w3.org/1999/02/22-rdf-syntax-ns#" xmlns:sodipodi="http://sodipodi.sourceforge.net/DTD/sodipodi-0.dtd" xmlns:inkscape="http://www.inkscape.org/namespaces/inkscape" xmlns:cc="http://creativecommons.org/ns#" xmlns:svg="http://www.w3.org/2000/svg"
	 xmlns="http://www.w3.org/2000/svg" xmlns:xlink="http://www.w3.org/1999/xlink" x="0px" y="0px" viewBox="351 93.5 1543.9 409.8"
	 style="enable-background:new 351 93.5 1543.9 409.8;" xml:space="preserve">
<style type="text/css">
	.st0{fill:#FFFFFF;}
</style>
<sodipodi:namedview  inkscape:window-maximized="1" inkscape:window-x="-8" inkscape:window-height="987" inkscape:document-units="px" fit-margin-bottom="10" inkscape:pageshadow="2" fit-margin-right="10" inkscape:pageopacity="0.0" inkscape:window-y="32" inkscape:window-width="1680" inkscape:current-layer="layer1" bordercolor="#666666" inkscape:zoom="1.025638" borderopacity="1.0" id="base" pagecolor="#ffffff" inkscape:cx="771.96476" fit-margin-left="10" fit-margin-top="10" showgrid="false" inkscape:cy="204.90885">
	</sodipodi:namedview>
<g id="layer1" transform="translate(-1687.849,1694.3458)" inkscape:groupmode="layer" inkscape:label="Ebene 1">
	<g id="g3846" transform="matrix(1.5770358,0,0,1.5770358,-1570.7398,-1303.8993)">
		<g id="g3863">
			<path id="path3064" inkscape:connector-curvature="0" sodipodi:nodetypes="zszszzszsz" class="st0" d="M2577-180.9
				c-56.3,0.4-102.4,63-102.4,117.6c0,57.5,33.8,127.5,102.4,127.3c68.6-0.2,104.2-75.7,104.2-127.3
				C2681.3-120.3,2633.3-181.3,2577-180.9z M2577-178.8c47.1,0,59.9,52.1,59.9,115.5c0,83.6-15.3,124.9-59.9,124.8
				c-44.5-0.1-59-33.9-59-124.8C2518-120.3,2529.9-178.8,2577-178.8z"/>
			<path id="path3060" inkscape:connector-curvature="0" sodipodi:nodetypes="zcsccccszscccccccccssz" class="st0" d="M2699.9-61.8
				c-0.3-62.1,49.5-117.2,91.6-119.9c15.2-1.1,34.7,5.9,46.2,10.8c8.3,3.6,25.2-1.6,28.2-11.2h1.6v84.6h-1.6
				c0-3.6-15.7-82.2-74.4-82.2c-43.3,0-47.5,76.2-47.5,117.8S2745.1,62,2795.7,62c24.5,0,42.6-10.7,47.3-32.4v-65.9h-20.6v-2.8h79.7
				v2.8h-19.7v96.4h-1.6c0,0-3.2-13.9-19.4-13.9c-20.7,0.1-40.3,18.1-64.1,17.9C2734.4,63.5,2700.1,0.4,2699.9-61.8L2699.9-61.8z"/>
			<path id="path3058" inkscape:connector-curvature="0" sodipodi:nodetypes="ccccccccccccccc" class="st0" d="M2320-172.6h-24.8
				v-2.8h87v2.8h-21.8l62.1,168.7c19.4-59.8,34.5-104,54.7-168.7h-21.6v-2.8h45.9v2.8h-20.9l-75.5,235.4L2320-172.6z"/>
			
				<path id="path3054" inkscape:connector-curvature="0" sodipodi:nodetypes="sccccccczcccccccsccscccssccscccccccccss" class="st0" d="
				M2914.4,5.2l-0.4-178.1h-23.6v-2.7h87.1v2.7h-23.6l0.5,195.2c5.2,22.4,14.5,39.3,46.3,39.6c31.8,0.3,53.3-18.8,61.4-44.8v-190
				h-27v-2.6h221.2l0.5,85.5h-2.1c-4.1-55.2-25.4-76-62.6-82.1c-12.8-2.1-26.3-0.5-43.3-0.7v109.1c14.8,1.1,30.6,0.2,41.2-8.9
				c9.7-8.3,12.4-27.5,13.1-35.3h1.9v95h-2c-0.6,0-1.4-23.8-12.9-35.1c-11.7-11.4-26.5-14.2-41.2-11.5V57.1
				c20.7,0,37.3,1.8,51.6-2.2c43.6-12,59-48.8,58.9-85.7h2.4v90.6H3088v-2.8h19.6v-229.9h-42.4v190c-4.8,18.2-22.4,48.3-67.4,48
				C2956,65,2914.5,46.1,2914.4,5.2L2914.4,5.2z"/>
		</g>
	</g>
</g>
</svg>
