<?xml version="1.0" encoding="iso-8859-1"?>
<!-- Generator: Adobe Illustrator 19.0.0, SVG Export Plug-In . SVG Version: 6.00 Build 0)  -->
<svg version="1.1" id="Capa_1" xmlns="http://www.w3.org/2000/svg" xmlns:xlink="http://www.w3.org/1999/xlink" x="0px" y="0px"
	 viewBox="0 0 512 512" style="enable-background:new 0 0 512 512;" xml:space="preserve">
<path style="fill:#00DDC1;" d="M255.3,271.018c-57.959,0-105.123-47.164-105.123-105.123c0-53.955,84.328-142.022,93.948-152.742
	L255.3,0.7l11.175,12.452c9.62,10.72,93.948,98.787,93.948,152.742C360.423,223.852,313.259,271.018,255.3,271.018z"/>
<path style="fill:#00CCB2;" d="M360.423,165.894c0-53.955-84.328-142.022-93.948-152.742L255.3,0.7v270.317
	C313.259,271.018,360.423,223.852,360.423,165.894z"/>
<path style="fill:#DFD7D5;" d="M255.3,210.947v-30.035c8.286,0,15.018-6.732,15.018-15.018h30.035
	C300.353,190.737,280.143,210.947,255.3,210.947z"/>
<path style="fill:#FFBD86;" d="M512,363.626l-136.559,136.26c-5.406,5.105-10.813,8.411-16.519,10.511l-2.403,0.902H60.071
	c-16.519,0-30.035-13.516-30.035-30.035V361.123c0-16.519,13.516-30.035,30.035-30.035h61.572
	c35.14-34.24,93.41-38.146,133.657-10.813c4.805,3.003,9.311,6.607,13.516,10.813h97.014v51.06c0,0,0,4.504,0,9.011
	c-4.504,0-9.011,0-9.011,0H225.264v30.035h143.868l100.219-100.219L512,363.626z"/>
<rect y="331.088" style="fill:#FF5E95;" width="60.071" height="180.212"/>
<g>
	<path style="fill:#F6A96C;" d="M512,363.626l-136.559,136.26c-5.406,5.105-10.813,8.411-16.519,10.511l-2.403,0.902H255.3v-90.106
		h113.833l100.219-100.219L512,363.626z"/>
	<path style="fill:#F6A96C;" d="M365.829,331.088v51.06c0,0,0,4.504,0,9.011c-4.504,0-9.011,0-9.011,0H255.3v-70.883
		c4.805,3.003,9.311,6.607,13.516,10.813H365.829z"/>
</g>
<g>
</g>
<g>
</g>
<g>
</g>
<g>
</g>
<g>
</g>
<g>
</g>
<g>
</g>
<g>
</g>
<g>
</g>
<g>
</g>
<g>
</g>
<g>
</g>
<g>
</g>
<g>
</g>
<g>
</g>
</svg>
