<?xml version="1.0" encoding="UTF-8"?>
<svg width="77px" height="77px" viewBox="0 0 77 77" version="1.1" xmlns="http://www.w3.org/2000/svg" xmlns:xlink="http://www.w3.org/1999/xlink">
    <!-- Generator: Sketch 51.1 (57501) - http://www.bohemiancoding.com/sketch -->
    <title>weight-loss</title>
    <desc>Created with Sketch.</desc>
    <defs></defs>
    <g id="Page-1" stroke="none" stroke-width="1" fill="none" fill-rule="evenodd">
        <g id="iPhone-8" transform="translate(-149.000000, -679.000000)">
            <g id="weight-loss" transform="translate(149.000000, 679.000000)">
                <g>
                    <path d="M54.4511468,77 L22.5507509,77 C21.9152074,77 21.340377,76.6216091 21.0881036,76.036577 C20.6768695,75.0872909 11.0690967,52.6885324 13.3495763,41.3903443 C14.6813764,34.7954233 16.8006523,31.0051974 18.5016658,27.9597218 C19.6768979,25.8567645 20.6044923,24.1965667 20.9829772,22.1638434 C21.7634246,17.9810894 18.9665846,6.21201823 17.821709,2.03031706 C17.6908618,1.54740239 17.7889598,1.0304987 18.0926749,0.632105377 C18.3941468,0.233862446 18.8637013,0 19.3591261,0 L57.6403789,0 C58.1404395,0 58.6077509,0.233862446 58.9090733,0.632105377 C59.2127883,1.03034831 59.3110359,1.54740239 59.1800391,2.03031706 C58.0351636,6.21186783 55.2383235,17.9810894 56.0186214,22.1638434 C56.3971063,24.1965667 57.3270933,25.8567645 58.5000823,27.9597218 C60.2010959,31.0051974 62.3178296,34.7954233 63.6497792,41.3903443 C65.932502,52.6885324 56.3248786,75.0872909 55.9136446,76.036577 C55.6615207,76.6217595 55.0866903,77 54.4511468,77 Z" id="Shape" fill="#FFBD86" fill-rule="nonzero"></path>
                    <path d="M38.498945,56 C37.6725278,56 37,56.7218452 37,57.6139283 L37,77 L40,77 L40,57.6139283 C39.9998593,56.7216937 39.3295822,56 38.498945,56 Z" id="Shape" fill="#F6A96C" fill-rule="nonzero"></path>
                    <path d="M63.9289388,41.1201444 C63.7207226,40.4546783 63.0960741,40 62.3861706,40 L14.6160823,40 C13.9061788,40 13.2792588,40.4545298 13.0710427,41.1201444 C12.8628265,41.7835323 13.1231345,42.5048127 13.7099256,42.8944733 L37.5949697,58.7286478 C37.8693608,58.9095987 38.1841836,59 38.498855,59 C38.8157979,59 39.1304693,58.9095987 39.4048603,58.7286478 L63.2900559,42.8944733 C63.8769983,42.5048127 64.137155,41.7835323 63.9289388,41.1201444 Z" id="Shape" fill="#FF5E95" fill-rule="nonzero"></path>
                    <g id="Group" transform="translate(0.000000, 14.000000)" fill="#00CCB2" fill-rule="nonzero">
                        <path d="M75.3957832,4.83811628 L66.4359609,4.83811628 L68.5084941,2.75252326 C69.1359238,2.1230814 69.1359238,1.10273256 68.5084941,0.472232558 C67.8834707,-0.157209302 66.8659277,-0.157209302 66.2409043,0.472232558 L61.4285547,5.30944186 C61.390957,5.34723256 61.3557656,5.38744186 61.3204238,5.4287093 C61.3062871,5.44639535 61.2945566,5.4652907 61.2804199,5.48418605 C61.2617715,5.50776744 61.2453789,5.5302907 61.2288359,5.5550814 C61.2124434,5.57745349 61.2005625,5.60118605 61.1865762,5.62476744 C61.1724395,5.6460814 61.160709,5.66724419 61.1465723,5.68976744 C61.1348418,5.71455814 61.1231113,5.73813953 61.1136367,5.76293023 C61.1019063,5.78651163 61.0901758,5.80903488 61.0807012,5.83261628 C61.071377,5.85740698 61.0619023,5.88098837 61.054834,5.90472093 C61.0455098,5.93072093 61.0360352,5.95551163 61.0265605,5.98272093 C61.0194922,6.00630233 61.0148301,6.03109302 61.0077617,6.05588372 C61.0006934,6.08188372 60.993625,6.10788372 60.9889629,6.13494186 C60.9843008,6.16336047 60.9796387,6.19162791 60.9772324,6.21989535 C60.9725703,6.24347674 60.9679082,6.26705814 60.965502,6.2907907 C60.9561777,6.39705814 60.9561777,6.50332558 60.965502,6.60959302 C60.9679082,6.63317442 60.9725703,6.65675581 60.9772324,6.68048837 C60.9796387,6.70890698 60.9843008,6.73717442 60.9889629,6.76544186 C60.993625,6.79265116 61.0006934,6.81865116 61.0077617,6.8457093 C61.0148301,6.8692907 61.0194922,6.8940814 61.0265605,6.91781395 C61.0358848,6.94381395 61.0453594,6.96981395 61.054834,6.99581395 C61.0619023,7.01939535 61.0712266,7.04297674 61.0807012,7.0667093 C61.0900254,7.0915 61.1019063,7.11387209 61.1136367,7.13745349 C61.1253672,7.16224419 61.1348418,7.18582558 61.1465723,7.20955814 C61.160709,7.23193023 61.1724395,7.25445349 61.1865762,7.27576744 C61.1983066,7.2970814 61.2100371,7.31703488 61.2217676,7.33713953 C61.2241738,7.33955814 61.2264297,7.34303488 61.2288359,7.34545349 C61.2452285,7.37024419 61.2640273,7.39261628 61.2804199,7.41634884 C61.2945566,7.43524419 61.3062871,7.45413953 61.3204238,7.47182558 C61.3556152,7.51309302 61.390957,7.55330233 61.4285547,7.59109302 L66.2409043,12.427093 C66.553416,12.7424186 66.964584,12.8994767 67.3734961,12.8994767 C67.7846641,12.8994767 68.1959824,12.7424186 68.5084941,12.427093 C69.1359238,11.7976512 69.1359238,10.7773023 68.5084941,10.1468023 L66.4359609,8.0624186 L75.3957832,8.0624186 C76.2817344,8.0624186 76.9983457,7.3409186 76.9983457,6.4504186 C76.9981953,5.55961628 76.2817344,4.83811628 75.3957832,4.83811628 Z" id="Shape"></path>
                        <path d="M15.8871152,7.13851163 C15.8988457,7.11493023 15.9105762,7.09134884 15.9200508,7.06655814 C15.929375,7.04297674 15.9388496,7.01939535 15.945918,6.99566279 C15.9552422,6.96966279 15.9647168,6.94366279 15.9741914,6.91766279 C15.9812598,6.8940814 15.9859219,6.8692907 15.9929902,6.84555814 C15.9976523,6.81834884 16.007127,6.79234884 16.0117891,6.7652907 C16.0164512,6.73687209 16.0211133,6.70860465 16.0235195,6.68033721 C16.0281816,6.65675581 16.0328437,6.63317442 16.03525,6.60944186 C16.0445742,6.50317442 16.0445742,6.39690698 16.03525,6.29063953 C16.0328437,6.26705814 16.0281816,6.24453488 16.0259258,6.22095349 C16.0212637,6.19253488 16.0166016,6.16305814 16.0117891,6.1347907 C16.007127,6.1075814 15.9976523,6.0815814 15.9929902,6.05573256 C15.9859219,6.03094186 15.9812598,6.00615116 15.9741914,5.98256977 C15.9648672,5.95536047 15.9553926,5.93056977 15.945918,5.90456977 C15.9388496,5.88098837 15.9295254,5.85740698 15.9200508,5.83246512 C15.9107266,5.80888372 15.8988457,5.78636047 15.8871152,5.76277907 C15.8753848,5.73798837 15.8659102,5.71440698 15.8541797,5.68961628 C15.840043,5.66724419 15.8283125,5.64593023 15.8141758,5.62340698 C15.8000391,5.60088372 15.7883086,5.57730233 15.771916,5.55493023 C15.7555234,5.53013953 15.7367246,5.50655814 15.7201816,5.48176744 C15.7060449,5.4640814 15.6943145,5.44639535 15.6779219,5.4287093 C15.6449863,5.38744186 15.6097949,5.34723256 15.5721973,5.30944186 L10.7596973,0.472232558 C10.1346738,-0.157209302 9.11728125,-0.157209302 8.49210742,0.472232558 C7.86467773,1.10273256 7.86467773,2.1230814 8.49210742,2.75252326 L10.5646406,4.83811628 L1.60496875,4.83811628 C0.719017578,4.83811628 0.000150390625,5.55961628 0.000150390625,6.45011628 C0.000150390625,7.34046512 0.719167969,8.06211628 1.60496875,8.06211628 L10.564791,8.06211628 L8.49225781,10.1465 C7.86482812,10.7771512 7.86482812,11.7975 8.49225781,12.4267907 C8.80476953,12.7421163 9.2159375,12.8991744 9.62484961,12.8991744 C10.0360176,12.8991744 10.4471855,12.7421163 10.7596973,12.4267907 L15.5721973,7.5907907 C15.6097949,7.553 15.6449863,7.5127907 15.6803281,7.47152326 C15.6920586,7.45383721 15.7061953,7.43615116 15.7179258,7.41831395 C15.7367246,7.39352326 15.7555234,7.36994186 15.771916,7.34515116 C15.7743223,7.34167442 15.7765781,7.33925581 15.7789844,7.33683721 C15.7907148,7.31794186 15.8024453,7.29662791 15.8141758,7.27773256 C15.8259062,7.25415116 15.840043,7.23283721 15.8541797,7.20925581 C15.8659102,7.18567442 15.8753848,7.16209302 15.8871152,7.13851163 Z" id="Shape"></path>
                    </g>
                    <path d="M63.642578,41.3903443 C62.283394,34.7954233 60.1229844,31.0051974 58.3869954,27.9597218 C57.189888,25.8567645 56.2409316,24.1965667 55.8545119,22.1638434 C55.0580172,17.9810894 57.9125172,6.21201823 59.0809332,2.03031706 C59.2144708,1.54740239 59.1143557,1.0304987 58.8043958,0.632105377 C58.4967252,0.233862446 58.0198052,0 57.5096152,0 L54.254655,0 C54.7625557,0 55.2419176,0.233862446 55.5494356,0.632105377 C55.8571063,1.03034831 55.9596632,1.54740239 55.8236837,2.03031706 C54.657557,6.21186783 51.8032097,17.9810894 52.5997043,22.1638434 C52.9859714,24.1965667 53.9326386,25.8567645 55.1321878,27.9597218 C56.8681768,31.0051974 59.0285864,34.7954233 60.387923,41.3903443 C62.717582,52.6885324 52.9098168,75.0872909 52.492569,76.036577 C52.2326666,76.6217595 51.6484586,77 51,77 L54.2548076,77 C54.9034188,77 55.4900686,76.6216091 55.7475292,76.036577 C56.1670662,75.0871405 65.972237,52.6885324 63.642578,41.3903443 Z" id="Shape" fill="#FFFFFF" fill-rule="nonzero" opacity="0.2"></path>
                </g>
            </g>
        </g>
    </g>
</svg>